<svg xmlns="http://www.w3.org/2000/svg" xmlns:xlink="http://www.w3.org/1999/xlink" viewBox="0 0 1556.07 874.91"><defs><style>.cls-1{fill:url(#linear-gradient);}.cls-2{fill:url(#linear-gradient-2);}.cls-3{fill:url(#linear-gradient-3);}.cls-4{fill:none;}.cls-5{clip-path:url(#clip-path);}.cls-6{fill:url(#linear-gradient-4);}.cls-7{mask:url(#mask);}.cls-8{fill:#0131b9;}.cls-9{clip-path:url(#clip-path-2);}.cls-10{fill:url(#linear-gradient-5);}.cls-11{mask:url(#mask-2);}.cls-12,.cls-14{fill:#ba1c58;}.cls-13{mask:url(#mask-3);}.cls-14{fill-rule:evenodd;}</style><linearGradient id="linear-gradient" x1="941.35" y1="4768.1" x2="-973.85" y2="640.91" gradientTransform="translate(1116.38 -886.15)" gradientUnits="userSpaceOnUse"><stop offset="0" stop-color="#fff"/><stop offset="1"/></linearGradient><linearGradient id="linear-gradient-2" x1="-336.84" y1="221.23" x2="167.34" y2="2518.58" gradientTransform="translate(1170.47 -899.87)" xlink:href="#linear-gradient"/><linearGradient id="linear-gradient-3" x1="434.11" y1="501.13" x2="-232.8" y2="1961" gradientTransform="translate(1173.7 -899.87)" xlink:href="#linear-gradient"/><clipPath id="clip-path"><polygon id="SVGID" class="cls-4" points="1017.39 874.9 1014.88 0 789.91 0 511.19 504.94 224.97 0 0 0 0 874.9 228.73 874.9 228.73 423.7 452.45 788.66 562.44 788.66 787.41 411.2 789.91 874.9 1017.39 874.9"/></clipPath><linearGradient id="linear-gradient-4" x1="1133.57" y1="1020.61" x2="-147.4" y2="-174.83" gradientUnits="userSpaceOnUse"><stop offset="0" stop-color="#0049e7"/><stop offset="1" stop-color="#16ea9e"/></linearGradient><mask id="mask" x="113.09" y="209.96" width="789.92" height="664.95" maskUnits="userSpaceOnUse"><rect class="cls-1" x="113.09" y="209.96" width="789.92" height="664.95"/></mask><clipPath id="clip-path-2"><path id="SVGID-2" data-name="SVGID" class="cls-4" d="M1167.37,0H1014.88l.56,195h136.92c102.49,0,153.73,47.49,153.73,128.74,0,80-51.25,127.49-153.73,127.49H1016.17l.56,195h150.63c238.72,0,388.7-123.74,388.7-322.46,0-200-150-323.72-388.7-323.72"/></clipPath><linearGradient id="linear-gradient-5" x1="766.25" y1="715.62" x2="1683.26" y2="22.37" gradientUnits="userSpaceOnUse"><stop offset="0" stop-color="#f0f"/><stop offset="1" stop-color="#ff0"/></linearGradient><mask id="mask-2" x="1014.88" y="0" width="77.17" height="646.18" maskUnits="userSpaceOnUse"><rect class="cls-2" x="1014.88" width="77.17" height="646.18"/></mask><mask id="mask-3" x="1068.77" y="194.07" width="329.93" height="452.11" maskUnits="userSpaceOnUse"><rect class="cls-3" x="1068.77" y="194.07" width="329.93" height="452.11"/></mask></defs><title>Logo</title><g id="Layer_2" data-name="Layer 2"><g id="Layer_1-2" data-name="Layer 1"><g class="cls-5"><rect class="cls-6" width="1017.39" height="874.91"/></g><g class="cls-7"><polygon class="cls-8" points="113.09 874.9 228.73 874.9 228.73 423.7 452.45 788.66 562.44 788.66 787.41 411.2 789.91 874.9 903.01 874.9 903.01 209.96 790.52 209.96 511.79 714.9 225.57 209.96 113.09 209.96 113.09 874.9"/></g><g class="cls-9"><rect class="cls-10" x="1014.88" width="541.19" height="646.18"/></g><g class="cls-11"><path class="cls-12" d="M1068.77,451.21h-52.59l.56,195h75.32ZM1014.88,0l.56,195h22.72Z"/></g><g class="cls-13"><path class="cls-14" d="M1306.1,323.72c0,80-51.25,127.49-153.73,127.49h-83.6l23.29,195h75.32q7.94,0,15.76-.18a226.08,226.08,0,1,0-30.76-451c102.49,0,153.73,47.49,153.73,128.74"/></g></g></g></svg>